<?xml version="1.0" standalone="no"?>
<!DOCTYPE svg PUBLIC "-//W3C//DTD SVG 20010904//EN"
 "http://www.w3.org/TR/2001/REC-SVG-20010904/DTD/svg10.dtd">
<svg version="1.0" xmlns="http://www.w3.org/2000/svg"
 width="185.000000pt" height="185.000000pt" viewBox="0 0 185.000000 185.000000"
 preserveAspectRatio="xMidYMid meet">
<metadata>
Created by potrace 1.14, written by Peter Selinger 2001-2017
</metadata>
<g transform="translate(0.000000,185.000000) scale(0.100000,-0.100000)"
fill="#000000" stroke="none">
<path d="M560 1580 c-168 -11 -435 -80 -472 -122 -28 -32 -24 -148 8 -250 45
-140 68 -185 106 -201 18 -8 38 -20 44 -28 6 -8 55 -140 108 -294 65 -190 103
-286 117 -297 28 -24 128 -24 172 -2 56 29 109 77 123 111 22 51 17 157 -12
263 l-26 94 37 34 c36 33 38 34 55 16 9 -11 57 -131 105 -269 96 -273 116
-319 140 -329 9 -3 93 -6 186 -6 167 0 170 0 192 24 15 16 70 168 167 463 187
571 182 553 174 635 -3 37 -12 72 -19 78 -8 7 -99 13 -234 17 l-221 6 -15 -37
c-9 -20 -25 -76 -36 -124 -11 -48 -24 -90 -28 -94 -3 -4 -28 57 -54 137 -27
80 -54 148 -60 152 -12 7 -335 32 -402 31 -22 -1 -92 -4 -155 -8z m410 -99
l74 -6 96 -302 c52 -166 97 -304 100 -307 3 -3 36 122 74 277 37 155 71 285
74 288 6 6 302 -8 309 -14 1 -2 -71 -224 -159 -495 l-162 -492 -122 0 -122 0
-25 68 c-13 37 -75 212 -138 390 -63 177 -116 322 -119 322 -3 0 -18 -19 -34
-42 -17 -23 -72 -86 -124 -140 l-95 -98 48 -166 c45 -159 46 -166 28 -179 -53
-41 -124 -87 -127 -84 -1 2 -56 157 -121 344 -65 187 -120 342 -122 345 -2 2
-14 -9 -27 -25 -12 -15 -25 -24 -28 -19 -11 17 -90 236 -86 239 7 6 169 56
248 76 132 34 316 41 560 20z"/>
<path d="M557 1256 c-21 -8 -41 -16 -43 -19 -6 -6 25 -129 35 -140 5 -5 29 16
55 45 49 55 81 106 73 115 -13 12 -86 12 -120 -1z"/>
</g>
</svg>
